<?xml version="1.0" encoding="UTF-8" standalone="no"?>
<!DOCTYPE svg PUBLIC "-//W3C//DTD SVG 1.1//EN"
 "http://www.w3.org/Graphics/SVG/1.1/DTD/svg11.dtd">
<!-- Generated by graphviz version 2.43.0 (0)
 -->
<!-- Title: G Pages: 1 -->
<svg width="1567pt" height="376pt"
 viewBox="0.00 0.00 1567.00 376.00" xmlns="http://www.w3.org/2000/svg" xmlns:xlink="http://www.w3.org/1999/xlink">
<g id="graph0" class="graph" transform="scale(1 1) rotate(0) translate(4 372)">
<title>G</title>
<polygon fill="white" stroke="transparent" points="-4,4 -4,-372 1563,-372 1563,4 -4,4"/>
<g id="clust1" class="cluster">
<title>cluster_0</title>
<polygon fill="none" stroke="white" points="35,-116 35,-252 269,-252 269,-116 35,-116"/>
</g>
<g id="clust2" class="cluster">
<title>cluster_1</title>
<polygon fill="none" stroke="white" points="289,-103 289,-265 524,-265 524,-103 289,-103"/>
</g>
<g id="clust3" class="cluster">
<title>cluster_2</title>
<polygon fill="none" stroke="white" points="794,-8 794,-360 1037,-360 1037,-8 794,-8"/>
</g>
<!-- start -->
<g id="node1" class="node">
<title>start</title>
<ellipse fill="none" stroke="black" stroke-width="0.2" cx="3.5" cy="-184" rx="3.5" ry="3.5"/>
</g>
<!-- cluster_1_node_2 -->
<g id="node2" class="node">
<title>cluster_1_node_2</title>
<polygon fill="none" stroke="black" stroke-width="0.2" points="261,-244 43,-244 43,-124 261,-124 261,-244"/>
<polygon fill="none" stroke="black" points="51,-217 51,-240 253,-240 253,-217 51,-217"/>
<text text-anchor="start" x="143.5" y="-226" font-family="Times,serif" font-size="10.00">EN</text>
<polygon fill="none" stroke="black" points="51,-166 51,-217 253,-217 253,-166 51,-166"/>
<text text-anchor="start" x="57" y="-201.4" font-family="Times,serif" font-size="12.00">M Leren programmeren (8788)</text>
<text text-anchor="start" x="127.5" y="-188.4" font-family="Times,serif" font-size="12.00">(44 uur)</text>
<text text-anchor="start" x="147" y="-175.4" font-family="Times,serif" font-size="12.00">V</text>
<polygon fill="none" stroke="black" points="51,-128 51,-166 253,-166 253,-128 51,-128"/>
<text text-anchor="start" x="59.5" y="-150.4" font-family="Times,serif" font-size="12.00">M Databanken (8789) (48 uur)</text>
<text text-anchor="start" x="147" y="-137.4" font-family="Times,serif" font-size="12.00">V</text>
</g>
<!-- start&#45;&#45;cluster_1_node_2 -->
<g id="edge1" class="edge">
<title>start&#45;&#45;cluster_1_node_2</title>
<path fill="none" stroke="black" stroke-width="0.2" d="M7.04,-184C12.48,-184 26.1,-184 42.93,-184"/>
</g>
<!-- cluster_2_node_3 -->
<g id="node3" class="node">
<title>cluster_2_node_3</title>
<polygon fill="none" stroke="black" stroke-width="0.2" points="516,-256.5 297,-256.5 297,-111.5 516,-111.5 516,-256.5"/>
<polygon fill="none" stroke="black" points="305.5,-229 305.5,-252 508.5,-252 508.5,-229 305.5,-229"/>
<text text-anchor="start" x="398.5" y="-238" font-family="Times,serif" font-size="10.00">EN</text>
<polygon fill="none" stroke="black" points="305.5,-191 305.5,-229 508.5,-229 508.5,-191 305.5,-191"/>
<text text-anchor="start" x="312" y="-213.4" font-family="Times,serif" font-size="12.00">M Functioneel programmeren &#45;</text>
<text text-anchor="start" x="338" y="-200.4" font-family="Times,serif" font-size="12.00">Python (9497) (40 uur)</text>
<polygon fill="none" stroke="black" points="305.5,-153 305.5,-191 508.5,-191 508.5,-153 305.5,-153"/>
<text text-anchor="start" x="315" y="-175.4" font-family="Times,serif" font-size="12.00">M OO programmeren &#45; Python</text>
<text text-anchor="start" x="361" y="-162.4" font-family="Times,serif" font-size="12.00">(9498) (36 uur)</text>
<polygon fill="none" stroke="black" points="305.5,-115 305.5,-153 508.5,-153 508.5,-115 305.5,-115"/>
<text text-anchor="start" x="311.5" y="-137.4" font-family="Times,serif" font-size="12.00">M Praktijk OO programmeren &#45;</text>
<text text-anchor="start" x="338" y="-124.4" font-family="Times,serif" font-size="12.00">Python (9499) (36 uur)</text>
</g>
<!-- cluster_1_node_2&#45;&#45;cluster_2_node_3 -->
<g id="edge2" class="edge">
<title>cluster_1_node_2&#45;&#45;cluster_2_node_3</title>
<path fill="none" stroke="black" stroke-width="0.2" d="M261.18,-184C272.96,-184 284.95,-184 296.74,-184"/>
</g>
<!-- node_4 -->
<g id="node4" class="node">
<title>node_4</title>
<polygon fill="none" stroke="black" stroke-width="0.2" points="766,-202 552,-202 552,-166 766,-166 766,-202"/>
<text text-anchor="middle" x="659" y="-187.4" font-family="Times,serif" font-size="12.00">M Groepswerk 1 &#45; Python (9500)</text>
<text text-anchor="middle" x="659" y="-174.4" font-family="Times,serif" font-size="12.00">(12 uur)</text>
</g>
<!-- cluster_2_node_3&#45;&#45;node_4 -->
<g id="edge3" class="edge">
<title>cluster_2_node_3&#45;&#45;node_4</title>
<path fill="none" stroke="black" stroke-width="0.2" d="M516.28,-184C528.03,-184 539.98,-184 551.7,-184"/>
</g>
<!-- cluster_3_node_5 -->
<g id="node5" class="node">
<title>cluster_3_node_5</title>
<polygon fill="none" stroke="black" stroke-width="0.2" points="1029,-351.5 802,-351.5 802,-16.5 1029,-16.5 1029,-351.5"/>
<polygon fill="none" stroke="black" points="810.5,-324 810.5,-347 1021.5,-347 1021.5,-324 810.5,-324"/>
<text text-anchor="start" x="907.5" y="-333" font-family="Times,serif" font-size="10.00">EN</text>
<polygon fill="none" stroke="black" points="810.5,-286 810.5,-324 1021.5,-324 1021.5,-286 810.5,-286"/>
<text text-anchor="start" x="822.5" y="-308.4" font-family="Times,serif" font-size="12.00">M Advanced Python (9501) (52</text>
<text text-anchor="start" x="903" y="-295.4" font-family="Times,serif" font-size="12.00">uur)</text>
<polygon fill="none" stroke="black" points="810.5,-248 810.5,-286 1021.5,-286 1021.5,-248 810.5,-248"/>
<text text-anchor="start" x="825.5" y="-270.4" font-family="Times,serif" font-size="12.00">M Architectuur Python (9502)</text>
<text text-anchor="start" x="891.5" y="-257.4" font-family="Times,serif" font-size="12.00">(28 uur)</text>
<polygon fill="none" stroke="black" points="810.5,-210 810.5,-248 1021.5,-248 1021.5,-210 810.5,-210"/>
<text text-anchor="start" x="816.5" y="-232.4" font-family="Times,serif" font-size="12.00">M Framework Python (9503) (52</text>
<text text-anchor="start" x="903" y="-219.4" font-family="Times,serif" font-size="12.00">uur)</text>
<polygon fill="none" stroke="black" points="810.5,-172 810.5,-210 1021.5,-210 1021.5,-172 810.5,-172"/>
<text text-anchor="start" x="825" y="-194.4" font-family="Times,serif" font-size="12.00">M Praktijk framework Python</text>
<text text-anchor="start" x="870" y="-181.4" font-family="Times,serif" font-size="12.00">(9504) (32 uur)</text>
<polygon fill="none" stroke="black" points="810.5,-134 810.5,-172 1021.5,-172 1021.5,-134 810.5,-134"/>
<text text-anchor="start" x="819.5" y="-156.4" font-family="Times,serif" font-size="12.00">M REST api &#45; Python (9506) (20</text>
<text text-anchor="start" x="903" y="-143.4" font-family="Times,serif" font-size="12.00">uur)</text>
<polygon fill="none" stroke="black" points="810.5,-96 810.5,-134 1021.5,-134 1021.5,-96 810.5,-96"/>
<text text-anchor="start" x="823" y="-118.4" font-family="Times,serif" font-size="12.00">M Security &#45; Python (9507) (24</text>
<text text-anchor="start" x="903" y="-105.4" font-family="Times,serif" font-size="12.00">uur)</text>
<polygon fill="none" stroke="black" points="810.5,-58 810.5,-96 1021.5,-96 1021.5,-58 810.5,-58"/>
<text text-anchor="start" x="831.5" y="-80.4" font-family="Times,serif" font-size="12.00">M Business skills (9438) (16</text>
<text text-anchor="start" x="903" y="-67.4" font-family="Times,serif" font-size="12.00">uur)</text>
<polygon fill="none" stroke="black" points="810.5,-20 810.5,-58 1021.5,-58 1021.5,-20 810.5,-20"/>
<text text-anchor="start" x="829" y="-42.4" font-family="Times,serif" font-size="12.00">M Praktijk Python developer</text>
<text text-anchor="start" x="870" y="-29.4" font-family="Times,serif" font-size="12.00">(9508) (28 uur)</text>
</g>
<!-- node_4&#45;&#45;cluster_3_node_5 -->
<g id="edge4" class="edge">
<title>node_4&#45;&#45;cluster_3_node_5</title>
<path fill="none" stroke="black" stroke-width="0.2" d="M766.09,-184C777.82,-184 789.79,-184 801.6,-184"/>
</g>
<!-- node_6 -->
<g id="node6" class="node">
<title>node_6</title>
<polygon fill="none" stroke="black" stroke-width="0.2" points="1279,-202 1065,-202 1065,-166 1279,-166 1279,-202"/>
<text text-anchor="middle" x="1172" y="-187.4" font-family="Times,serif" font-size="12.00">M Groepswerk 2 &#45; Python (9505)</text>
<text text-anchor="middle" x="1172" y="-174.4" font-family="Times,serif" font-size="12.00">(12 uur)</text>
</g>
<!-- cluster_3_node_5&#45;&#45;node_6 -->
<g id="edge5" class="edge">
<title>cluster_3_node_5&#45;&#45;node_6</title>
<path fill="none" stroke="black" stroke-width="0.2" d="M1029.24,-184C1041.07,-184 1053.07,-184 1064.83,-184"/>
</g>
<!-- node_7 -->
<g id="node7" class="node">
<title>node_7</title>
<polygon fill="none" stroke="black" stroke-width="0.2" points="1516,-202 1315,-202 1315,-166 1516,-166 1516,-202"/>
<text text-anchor="middle" x="1415.5" y="-187.4" font-family="Times,serif" font-size="12.00">EP Python developer (9509) (1</text>
<text text-anchor="middle" x="1415.5" y="-174.4" font-family="Times,serif" font-size="12.00">uur)</text>
</g>
<!-- node_6&#45;&#45;node_7 -->
<g id="edge6" class="edge">
<title>node_6&#45;&#45;node_7</title>
<path fill="none" stroke="black" stroke-width="0.2" d="M1279.28,-184C1291.05,-184 1303,-184 1314.69,-184"/>
</g>
<!-- end -->
<g id="node8" class="node">
<title>end</title>
<ellipse fill="none" stroke="black" stroke-width="0.2" cx="1555.5" cy="-184" rx="3.5" ry="3.5"/>
</g>
<!-- node_7&#45;&#45;end -->
<g id="edge7" class="edge">
<title>node_7&#45;&#45;end</title>
<path fill="none" stroke="black" stroke-width="0.2" d="M1516.06,-184C1532.72,-184 1546.4,-184 1551.9,-184"/>
</g>
</g>
</svg>
